<svg width="20" height="20" viewBox="0 0 20 20" fill="none" xmlns="http://www.w3.org/2000/svg">
<path d="M9.9963 6.23768C9.47898 6.23768 8.99369 6.33594 8.54042 6.53247C8.08714 6.729 7.6856 7.00169 7.3358 7.35053C6.99092 7.69446 6.71994 8.09489 6.52286 8.55182C6.32579 9.00384 6.22725 9.48779 6.22725 10.0037C6.22725 10.5196 6.32579 11.0035 6.52286 11.4556C6.71994 11.9076 6.99092 12.308 7.3358 12.6568C7.6856 13.0008 8.08714 13.271 8.54042 13.4675C8.99369 13.6641 9.47898 13.7623 9.9963 13.7623C10.5087 13.7623 10.9915 13.6641 11.4448 13.4675C11.903 13.271 12.3045 13.0008 12.6494 12.6568C12.9943 12.308 13.2653 11.9076 13.4624 11.4556C13.6594 11.0035 13.758 10.5196 13.758 10.0037C13.758 9.48779 13.6594 9.00384 13.4624 8.55182C13.2653 8.09489 12.9943 7.69446 12.6494 7.35053C12.3045 7.00169 11.903 6.729 11.4448 6.53247C10.9915 6.33594 10.5087 6.23768 9.9963 6.23768ZM10.6467 2.64855C10.6467 2.47167 10.5826 2.31936 10.4545 2.19162C10.3264 2.06387 10.1737 2 9.9963 2C9.82386 2 9.67359 2.06387 9.5455 2.19162C9.4174 2.31936 9.35335 2.47167 9.35335 2.64855V4.19622C9.35335 4.36819 9.4174 4.51804 9.5455 4.64579C9.67359 4.77353 9.82386 4.8374 9.9963 4.8374C10.1737 4.8374 10.3264 4.77353 10.4545 4.64579C10.5826 4.51804 10.6467 4.36819 10.6467 4.19622V2.64855ZM13.6471 5.45647C13.5239 5.5793 13.4624 5.73161 13.4624 5.9134C13.4624 6.09028 13.5239 6.24014 13.6471 6.36297C13.7703 6.4858 13.9206 6.54967 14.0979 6.55458C14.2802 6.55458 14.4354 6.49071 14.5635 6.36297L15.6647 5.26485C15.7878 5.14202 15.8494 4.98971 15.8494 4.80792C15.8494 4.62613 15.7878 4.47382 15.6647 4.35099C15.5415 4.22816 15.3912 4.16674 15.2139 4.16674C15.0365 4.16674 14.8862 4.22816 14.763 4.35099L13.6471 5.45647ZM17.3497 10.6449C17.527 10.6449 17.6798 10.581 17.8079 10.4532C17.936 10.3255 18 10.1756 18 10.0037C18 9.82681 17.936 9.67695 17.8079 9.55412C17.6798 9.42638 17.527 9.36251 17.3497 9.36251H15.8051C15.6326 9.36251 15.4824 9.42638 15.3543 9.55412C15.2262 9.67695 15.1621 9.82681 15.1621 10.0037C15.1621 10.1756 15.2262 10.3255 15.3543 10.4532C15.4824 10.581 15.6326 10.6449 15.8051 10.6449H17.3497ZM14.5561 13.6518C14.4329 13.5289 14.2802 13.4675 14.0979 13.4675C13.9206 13.4675 13.7703 13.5289 13.6471 13.6518C13.5239 13.7746 13.4624 13.9245 13.4624 14.1013C13.4624 14.2782 13.5239 14.4305 13.6471 14.5583L14.763 15.6637C14.8862 15.7866 15.0365 15.8455 15.2139 15.8406C15.3912 15.8406 15.5415 15.7792 15.6647 15.6564C15.7878 15.5335 15.8494 15.3837 15.8494 15.2068C15.8494 15.025 15.7878 14.8727 15.6647 14.7499L14.5561 13.6518ZM10.6467 15.8111C10.6467 15.6343 10.5826 15.482 10.4545 15.3542C10.3264 15.2265 10.1737 15.1626 9.9963 15.1626C9.82386 15.1626 9.67359 15.2265 9.5455 15.3542C9.4174 15.482 9.35335 15.6343 9.35335 15.8111V17.3588C9.35335 17.5308 9.4174 17.6806 9.5455 17.8084C9.67359 17.9361 9.82386 18 9.9963 18C10.1737 18 10.3264 17.9361 10.4545 17.8084C10.5826 17.6806 10.6467 17.5308 10.6467 17.3588V15.8111ZM4.32794 14.7425C4.20477 14.8653 4.14319 15.0177 4.14319 15.1994C4.14319 15.3763 4.20231 15.5262 4.32055 15.649C4.44373 15.7718 4.59646 15.8333 4.77875 15.8333C4.96105 15.8382 5.11378 15.7792 5.23695 15.6564L6.33811 14.5583C6.46128 14.4354 6.52286 14.2856 6.52286 14.1087C6.52779 13.9269 6.46867 13.7746 6.3455 13.6518C6.22232 13.5289 6.06959 13.4675 5.8873 13.4675C5.705 13.4675 5.55227 13.5289 5.4291 13.6518L4.32794 14.7425ZM2.64296 9.36251C2.47052 9.36251 2.32025 9.42638 2.19215 9.55412C2.06405 9.67695 2 9.82681 2 10.0037C2 10.1756 2.06405 10.3255 2.19215 10.4532C2.32025 10.581 2.47052 10.6449 2.64296 10.6449H4.18753C4.3649 10.6449 4.51763 10.581 4.64573 10.4532C4.77383 10.3255 4.83788 10.1756 4.83788 10.0037C4.83788 9.82681 4.77383 9.67695 4.64573 9.55412C4.51763 9.42638 4.3649 9.36251 4.18753 9.36251H2.64296ZM5.4291 6.36297C5.55227 6.4858 5.70254 6.54721 5.87991 6.54721C6.0622 6.54721 6.21493 6.4858 6.33811 6.36297C6.46128 6.24505 6.52286 6.09519 6.52286 5.9134C6.52779 5.7267 6.46867 5.57439 6.3455 5.45647L5.24434 4.35099C5.1261 4.23307 4.97583 4.17411 4.79353 4.17411C4.61617 4.1692 4.46343 4.22816 4.33533 4.35099C4.21216 4.47382 4.15058 4.62613 4.15058 4.80792C4.15058 4.9848 4.2097 5.13465 4.32794 5.25749L5.4291 6.36297Z" fill="white" fill-opacity="0.8"/>
</svg>
