<svg width="20" height="20" viewBox="0 0 20 20" fill="none" xmlns="http://www.w3.org/2000/svg">
<path d="M15.5447 4.99473C14.5249 4.53432 13.4313 4.1951 12.2879 4.00081C12.2671 3.99707 12.2463 4.00644 12.2356 4.02518C12.0949 4.27131 11.9392 4.59241 11.8301 4.84479C10.6003 4.66363 9.37679 4.66363 8.17221 4.84479C8.0631 4.5868 7.90166 4.27131 7.76038 4.02518C7.74966 4.00706 7.72886 3.99769 7.70803 4.00081C6.56527 4.19448 5.47171 4.53369 4.45129 4.99473C4.44246 4.99848 4.43488 5.00473 4.42986 5.01285C2.35559 8.06208 1.78737 11.0364 2.06612 13.9738C2.06738 13.9881 2.07558 14.0019 2.08693 14.0106C3.45547 14.9995 4.78114 15.5999 6.08219 15.9978C6.10301 16.0041 6.12507 15.9966 6.13832 15.9797C6.44608 15.5662 6.72043 15.1301 6.95565 14.6715C6.96953 14.6447 6.95628 14.6128 6.92791 14.6022C6.49275 14.4398 6.0784 14.2417 5.67982 14.0169C5.64829 13.9987 5.64577 13.9544 5.67477 13.9331C5.75865 13.8713 5.84255 13.8069 5.92264 13.742C5.93713 13.7301 5.95732 13.7276 5.97435 13.7351C8.59286 14.9114 11.4277 14.9114 14.0153 13.7351C14.0323 13.727 14.0525 13.7295 14.0677 13.7413C14.1478 13.8063 14.2316 13.8713 14.3161 13.9331C14.3451 13.9544 14.3433 13.9987 14.3117 14.0169C13.9131 14.2461 13.4988 14.4398 13.063 14.6016C13.0346 14.6122 13.022 14.6447 13.0359 14.6715C13.2762 15.1295 13.5505 15.5655 13.8526 15.9791C13.8652 15.9966 13.8879 16.0041 13.9087 15.9978C15.2161 15.5999 16.5417 14.9995 17.9103 14.0106C17.9223 14.0019 17.9298 13.9887 17.9311 13.9744C18.2647 10.5784 17.3723 7.62853 15.5655 5.01347C15.5611 5.00473 15.5535 4.99848 15.5447 4.99473ZM7.34668 12.1852C6.55833 12.1852 5.90876 11.473 5.90876 10.5984C5.90876 9.72381 6.54574 9.01165 7.34668 9.01165C8.15392 9.01165 8.79721 9.73006 8.78459 10.5984C8.78459 11.473 8.14761 12.1852 7.34668 12.1852ZM12.6632 12.1852C11.8748 12.1852 11.2253 11.473 11.2253 10.5984C11.2253 9.72381 11.8622 9.01165 12.6632 9.01165C13.4704 9.01165 14.1137 9.73006 14.1011 10.5984C14.1011 11.473 13.4704 12.1852 12.6632 12.1852Z" fill="white" fill-opacity="0.8"/>
</svg>
