<svg width="20" height="20" viewBox="0 0 20 20" fill="none" xmlns="http://www.w3.org/2000/svg">
<path fill-rule="evenodd" clip-rule="evenodd" d="M10 17C13.866 17 17 13.866 17 10C17 6.13401 13.866 3 10 3C6.13401 3 3 6.13401 3 10C3 13.866 6.13401 17 10 17ZM8.98359 11.5054V11.6413H10.5592V11.5054C10.562 11.2443 10.5967 11.0245 10.6632 10.846C10.7325 10.6675 10.8364 10.5103 10.975 10.3745C11.1163 10.2386 11.2965 10.1081 11.5154 9.98284C11.776 9.83365 12.0019 9.66714 12.1931 9.48332C12.3843 9.29683 12.5326 9.0837 12.6379 8.84393C12.746 8.60149 12.8001 8.32442 12.8001 8.01272C12.8001 7.5465 12.6795 7.14821 12.4384 6.81786C12.1973 6.48751 11.8647 6.23575 11.4406 6.06258C11.0166 5.88674 10.5288 5.79883 9.97721 5.79883C9.47555 5.79883 9.01685 5.88541 8.60111 6.05858C8.18537 6.22908 7.8514 6.48884 7.59918 6.83784C7.34697 7.18418 7.21393 7.62376 7.20007 8.15658H8.89629C8.9046 7.93812 8.96003 7.75563 9.06258 7.6091C9.16513 7.45991 9.29678 7.34802 9.45753 7.27342C9.61829 7.19616 9.78874 7.15753 9.96889 7.15753C10.1546 7.15753 10.3237 7.19483 10.4761 7.26943C10.6313 7.34402 10.7546 7.45059 10.8461 7.58912C10.9376 7.72766 10.9833 7.88884 10.9833 8.07266C10.9833 8.24583 10.9431 8.40302 10.8627 8.54421C10.7824 8.68275 10.6743 8.80929 10.5385 8.92385C10.4026 9.03841 10.2488 9.14897 10.077 9.25554C9.84694 9.39407 9.65016 9.54859 9.48664 9.71909C9.32311 9.8896 9.19839 10.1134 9.11247 10.3905C9.02932 10.6675 8.98636 11.0392 8.98359 11.5054ZM9.09584 13.9191C9.29262 14.1056 9.5296 14.1988 9.80675 14.1988C9.98414 14.1988 10.1477 14.1562 10.2973 14.071C10.447 13.983 10.5676 13.8671 10.659 13.7233C10.7533 13.5768 10.8018 13.4156 10.8045 13.2397C10.8018 12.9787 10.7006 12.7549 10.501 12.5684C10.3015 12.3819 10.0701 12.2886 9.80675 12.2886C9.5296 12.2886 9.29262 12.3819 9.09584 12.5684C8.90183 12.7549 8.80621 12.9787 8.80898 13.2397C8.80621 13.5035 8.90183 13.7299 9.09584 13.9191Z" fill="white" fill-opacity="0.8"/>
</svg>
