<svg width="20" height="20" viewBox="0 0 20 20" fill="none" xmlns="http://www.w3.org/2000/svg">
<path d="M5 10.8893C5 11.0344 5.04804 11.1561 5.14413 11.2543C5.2448 11.3479 5.37291 11.3947 5.52848 11.3947H9.5024L7.41592 17.1504C7.34271 17.3422 7.32899 17.506 7.37474 17.6417C7.4205 17.7821 7.50057 17.8827 7.61496 17.9435C7.72935 18.0043 7.85747 18.016 7.99931 17.9786C8.14116 17.9459 8.27385 17.8523 8.39739 17.6978L14.8147 9.58378C14.9382 9.42468 15 9.26792 15 9.1135C15 8.96376 14.9497 8.84209 14.849 8.74851C14.7529 8.65024 14.6271 8.6011 14.4715 8.6011H10.4976L12.5841 2.84545C12.6573 2.65827 12.671 2.49683 12.6253 2.36113C12.5795 2.22075 12.4994 2.12014 12.385 2.05931C12.2706 1.99848 12.1425 1.98444 12.0007 2.0172C11.8588 2.04995 11.7261 2.14588 11.6026 2.30498L5.18531 10.412C5.06177 10.5758 5 10.7349 5 10.8893Z" fill="white" fill-opacity="0.8"/>
</svg>
