<svg width="20" height="20" viewBox="0 0 20 20" fill="none" xmlns="http://www.w3.org/2000/svg">
<path fill-rule="evenodd" clip-rule="evenodd" d="M10 2C5.57999 2 2 5.52939 2 9.88689C2 13.3768 4.29 16.3246 7.47 17.3695C7.87 17.4386 8.01999 17.202 8.01999 16.995C8.01999 16.8076 8.01 16.1865 8.01 15.526C6 15.8907 5.48 15.0429 5.32 14.5993C5.23 14.3726 4.84 13.6726 4.50001 13.4853C4.21999 13.3374 3.81999 12.9726 4.49 12.9628C5.12 12.9529 5.57 13.5346 5.72 13.7712C6.44 14.9641 7.59 14.6289 8.05 14.4219C8.12 13.9092 8.33 13.5642 8.56 13.367C6.77999 13.1698 4.92 12.4896 4.92 9.47283C4.92 8.61514 5.23 7.90531 5.74001 7.35324C5.66001 7.15606 5.37999 6.34765 5.81999 5.2632C5.81999 5.2632 6.49 5.05617 8.01999 6.07161C8.65999 5.89416 9.34001 5.80542 10.02 5.80542C10.7 5.80542 11.38 5.89416 12.02 6.07161C13.55 5.04631 14.22 5.2632 14.22 5.2632C14.66 6.34765 14.38 7.15606 14.3 7.35324C14.81 7.90531 15.12 8.60527 15.12 9.47283C15.12 12.4994 13.25 13.1698 11.47 13.367C11.76 13.6134 12.01 14.0867 12.01 14.8261C12.01 15.8809 12 16.7288 12 16.995C12 17.202 12.15 17.4484 12.55 17.3695C15.71 16.3246 18 13.367 18 9.88689C18 5.52939 14.42 2 10 2Z" fill="white" fill-opacity="0.8"/>
</svg>
