<svg width="14" height="13" viewBox="0 0 14 13" fill="none" xmlns="http://www.w3.org/2000/svg">
<path fill-rule="evenodd" clip-rule="evenodd" d="M6.01168 0.206055C3.22119 0.206055 0.959045 2.42331 0.959045 5.15844C0.959045 7.89356 3.22119 10.1108 6.01168 10.1108C6.9863 10.1108 7.89646 9.84034 8.66831 9.3718L11.5658 12.1718C11.9482 12.5496 12.5586 12.5646 12.959 12.206C13.3956 11.815 13.4122 11.1369 12.9953 10.725L10.16 7.98643C10.7301 7.18463 11.0643 6.20979 11.0643 5.15844C11.0643 2.42331 8.80217 0.206055 6.01168 0.206055ZM3.77372 2.89542C5.01372 1.66915 7.00963 1.66915 8.24963 2.89542C9.50932 4.14115 9.50932 6.17572 8.24963 7.42145C7.00963 8.64772 5.01372 8.64772 3.77372 7.42145C2.51404 6.17572 2.51404 4.14115 3.77372 2.89542Z" fill="black" fill-opacity="0.8"/>
</svg>
