<svg width="13" height="13" viewBox="0 0 13 13" fill="none" xmlns="http://www.w3.org/2000/svg">
<path fill-rule="evenodd" clip-rule="evenodd" d="M5.49862 0.206055C2.70812 0.206055 0.445984 2.42331 0.445984 5.15844C0.445984 7.89356 2.70812 10.1108 5.49862 10.1108C6.47324 10.1108 7.3834 9.84034 8.15525 9.3718L11.0528 12.1718C11.4352 12.5496 12.0455 12.5646 12.446 12.206C12.8826 11.815 12.8992 11.1369 12.4823 10.725L9.64699 7.98643C10.217 7.18463 10.5512 6.20979 10.5512 5.15844C10.5512 2.42331 8.28911 0.206055 5.49862 0.206055ZM3.26066 2.89542C4.50066 1.66915 6.49657 1.66915 7.73657 2.89542C8.99625 4.14115 8.99625 6.17572 7.73657 7.42145C6.49657 8.64772 4.50066 8.64772 3.26066 7.42145C2.00098 6.17572 2.00098 4.14115 3.26066 2.89542Z" fill="white" fill-opacity="0.8"/>
</svg>
