<svg width="20" height="20" viewBox="0 0 20 20" fill="none" xmlns="http://www.w3.org/2000/svg">
<path d="M4.47949 8.93028C4.93649 8.93028 5.35217 8.82153 5.72653 8.60402C6.10088 8.38167 6.39988 8.08199 6.62352 7.70496C6.84716 7.32794 6.95898 6.91225 6.95898 6.45789C6.95898 6.00837 6.84716 5.59751 6.62352 5.22532C6.39988 4.85313 6.10088 4.55587 5.72653 4.33352C5.35217 4.11117 4.93649 4 4.47949 4C4.02249 4 3.60681 4.11117 3.23245 4.33352C2.8581 4.55587 2.5591 4.85313 2.33546 5.22532C2.11182 5.59751 2 6.00837 2 6.45789C2 6.91225 2.11182 7.32794 2.33546 7.70496C2.5591 8.08199 2.8581 8.38167 3.23245 8.60402C3.60681 8.82153 4.02249 8.93028 4.47949 8.93028ZM8.15497 7.14668C8.32513 7.14668 8.47341 7.08626 8.59982 6.96542C8.72622 6.83975 8.78943 6.68991 8.78943 6.5159C8.78943 6.34672 8.72622 6.20171 8.59982 6.08087C8.47341 5.9552 8.32513 5.89236 8.15497 5.89236C7.98481 5.89236 7.83652 5.9552 7.71012 6.08087C7.58371 6.20171 7.52051 6.34672 7.52051 6.5159C7.52051 6.68991 7.58128 6.83975 7.70283 6.96542C7.82923 7.08626 7.97995 7.14668 8.15497 7.14668ZM9.98541 7.14668C10.1604 7.14668 10.3087 7.08626 10.4303 6.96542C10.5567 6.83975 10.6199 6.68991 10.6199 6.5159C10.6199 6.34672 10.5567 6.20171 10.4303 6.08087C10.3087 5.9552 10.1604 5.89236 9.98541 5.89236C9.81525 5.89236 9.66697 5.9552 9.54057 6.08087C9.41902 6.20171 9.35825 6.34672 9.35825 6.5159C9.35825 6.68991 9.41902 6.83975 9.54057 6.96542C9.66697 7.08626 9.81525 7.14668 9.98541 7.14668ZM11.8377 7.14668C12.0128 7.14668 12.161 7.08626 12.2826 6.96542C12.409 6.83975 12.4722 6.68991 12.4722 6.5159C12.4722 6.34672 12.409 6.20171 12.2826 6.08087C12.1562 5.9552 12.0079 5.89236 11.8377 5.89236C11.6627 5.89236 11.5144 5.9552 11.3929 6.08087C11.2713 6.20171 11.2106 6.34672 11.2106 6.5159C11.2106 6.68991 11.2713 6.83975 11.3929 6.96542C11.5144 7.08626 11.6627 7.14668 11.8377 7.14668ZM15.5132 8.93028C15.9702 8.93028 16.3859 8.82153 16.7603 8.60402C17.1395 8.38167 17.4409 8.08199 17.6645 7.70496C17.8882 7.32794 18 6.91225 18 6.45789C18 6.00837 17.8882 5.59751 17.6645 5.22532C17.4409 4.85313 17.1395 4.55587 16.7603 4.33352C16.3859 4.11117 15.9702 4 15.5132 4C15.0611 4 14.6454 4.11117 14.2662 4.33352C13.8918 4.55587 13.5928 4.85313 13.3692 5.22532C13.1504 5.59751 13.041 6.00837 13.041 6.45789C13.041 6.91225 13.1504 7.32794 13.3692 7.70496C13.5928 8.08199 13.8918 8.38167 14.2662 8.60402C14.6454 8.82153 15.0611 8.93028 15.5132 8.93028ZM13.6171 10.4384C13.7922 10.4384 13.9404 10.3755 14.062 10.2499C14.1884 10.1242 14.2516 9.97676 14.2516 9.80759C14.2516 9.63357 14.1884 9.48615 14.062 9.36531C13.9404 9.23964 13.7922 9.1768 13.6171 9.1768C13.447 9.1768 13.3011 9.23964 13.1796 9.36531C13.058 9.48615 12.9973 9.63357 12.9973 9.80759C12.9973 9.97676 13.058 10.1242 13.1796 10.2499C13.3011 10.3755 13.447 10.4384 13.6171 10.4384ZM12.2388 11.9465C12.4139 11.9465 12.5621 11.8836 12.6837 11.7579C12.8101 11.6323 12.8733 11.4824 12.8733 11.3084C12.8733 11.1392 12.8101 10.9942 12.6837 10.8734C12.5621 10.7477 12.4139 10.6849 12.2388 10.6849C12.0735 10.6849 11.9277 10.7477 11.8013 10.8734C11.6749 10.9942 11.6117 11.1392 11.6117 11.3084C11.6117 11.4824 11.6724 11.6323 11.794 11.7579C11.9204 11.8836 12.0687 11.9465 12.2388 11.9465ZM10 17C10.457 17 10.8727 16.8888 11.247 16.6665C11.6214 16.449 11.9204 16.1517 12.144 15.7747C12.3677 15.3977 12.4795 14.9844 12.4795 14.5349C12.4795 14.0805 12.3677 13.6672 12.144 13.295C11.9204 12.918 11.6214 12.6207 11.247 12.4032C10.8727 12.1809 10.457 12.0697 10 12.0697C9.543 12.0697 9.12732 12.1809 8.75296 12.4032C8.37861 12.6207 8.07961 12.918 7.85597 13.295C7.63233 13.6672 7.52051 14.0805 7.52051 14.5349C7.52051 14.9844 7.63233 15.3977 7.85597 15.7747C8.07961 16.1517 8.37861 16.449 8.75296 16.6665C9.12732 16.8888 9.543 17 10 17ZM7.74658 11.9465C7.9216 11.9465 8.06989 11.8836 8.19143 11.7579C8.31297 11.6323 8.37375 11.4824 8.37375 11.3084C8.37375 11.1392 8.31297 10.9942 8.19143 10.8734C8.06989 10.7477 7.9216 10.6849 7.74658 10.6849C7.57156 10.6849 7.42085 10.7477 7.29444 10.8734C7.1729 10.9942 7.11212 11.1392 7.11212 11.3084C7.11212 11.4824 7.1729 11.6323 7.29444 11.7579C7.42085 11.8836 7.57156 11.9465 7.74658 11.9465ZM6.36828 10.4384C6.53844 10.4384 6.68429 10.3755 6.80583 10.2499C6.93224 10.1242 6.99544 9.97676 6.99544 9.80759C6.99544 9.63357 6.93224 9.48615 6.80583 9.36531C6.68429 9.23964 6.53844 9.1768 6.36828 9.1768C6.19812 9.1768 6.04983 9.23964 5.92343 9.36531C5.79702 9.48615 5.73382 9.63357 5.73382 9.80759C5.73382 9.97676 5.79459 10.1242 5.91614 10.2499C6.04254 10.3755 6.19325 10.4384 6.36828 10.4384Z" fill="white" fill-opacity="0.8"/>
</svg>
