<svg width="130" height="24" viewBox="0 0 130 24" fill="none" xmlns="http://www.w3.org/2000/svg">
<g clip-path="url(#clip0_933_82358)">
<path d="M0 5.17762L0 18.8232C0 21.6083 2.29002 23.8661 5.11491 23.8661H24.9728C27.7977 23.8661 30.0877 21.6083 30.0877 18.8232V5.17762C30.0877 2.39249 27.7977 0.134697 24.9728 0.134697H5.11491C2.29002 0.134697 0 2.39249 0 5.17762Z" fill="#111111"/>
<path d="M0 5.17762L0 18.8232C0 21.6083 2.29002 23.8661 5.11491 23.8661H24.9728C27.7977 23.8661 30.0877 21.6083 30.0877 18.8232V5.17762C30.0877 2.39249 27.7977 0.134697 24.9728 0.134697H5.11491C2.29002 0.134697 0 2.39249 0 5.17762Z" fill="url(#paint0_linear_933_82358)"/>
<path d="M7.52195 6.06756C7.52195 5.24841 6.84842 4.58435 6.01757 4.58435C5.18672 4.58435 4.51318 5.24841 4.51318 6.06756C4.51318 6.88672 5.18672 7.55077 6.01757 7.55077C6.84842 7.55077 7.52195 6.88672 7.52195 6.06756Z" fill="url(#paint1_linear_933_82358)"/>
<path d="M7.52195 6.06756C7.52195 5.24841 6.84842 4.58435 6.01757 4.58435C5.18672 4.58435 4.51318 5.24841 4.51318 6.06756C4.51318 6.88672 5.18672 7.55077 6.01757 7.55077C6.84842 7.55077 7.52195 6.88672 7.52195 6.06756Z" fill="url(#paint2_linear_933_82358)"/>
<path d="M7.52195 6.06756C7.52195 5.24841 6.84842 4.58435 6.01757 4.58435C5.18672 4.58435 4.51318 5.24841 4.51318 6.06756C4.51318 6.88672 5.18672 7.55077 6.01757 7.55077C6.84842 7.55077 7.52195 6.88672 7.52195 6.06756Z" fill="url(#paint3_linear_933_82358)"/>
<path d="M7.52195 17.9239C7.52195 17.1047 6.84842 16.4407 6.01757 16.4407C5.18672 16.4407 4.51318 17.1047 4.51318 17.9239C4.51318 18.743 5.18672 19.4071 6.01757 19.4071C6.84842 19.4071 7.52195 18.743 7.52195 17.9239Z" fill="url(#paint4_linear_933_82358)"/>
<path d="M25.5746 12.0005C25.5746 11.1814 24.901 10.5173 24.0702 10.5173C23.2393 10.5173 22.5658 11.1814 22.5658 12.0005C22.5658 12.8197 23.2393 13.4838 24.0702 13.4838C24.901 13.4838 25.5746 12.8197 25.5746 12.0005Z" fill="url(#paint5_linear_933_82358)"/>
<path d="M25.5746 12.0005C25.5746 11.1814 24.901 10.5173 24.0702 10.5173C23.2393 10.5173 22.5658 11.1814 22.5658 12.0005C22.5658 12.8197 23.2393 13.4838 24.0702 13.4838C24.901 13.4838 25.5746 12.8197 25.5746 12.0005Z" fill="url(#paint6_linear_933_82358)"/>
<path d="M24.0702 4.58435H12.0351C11.2043 4.58435 10.5308 5.24841 10.5308 6.06756C10.5308 6.88672 11.2043 7.55077 12.0351 7.55077H24.0702C24.9011 7.55077 25.5746 6.88672 25.5746 6.06756C25.5746 5.24841 24.9011 4.58435 24.0702 4.58435Z" fill="url(#paint7_linear_933_82358)"/>
<path d="M24.0702 16.4407H12.0351C11.2043 16.4407 10.5308 17.1047 10.5308 17.9239C10.5308 18.743 11.2043 19.4071 12.0351 19.4071H24.0702C24.9011 19.4071 25.5746 18.743 25.5746 17.9239C25.5746 17.1047 24.9011 16.4407 24.0702 16.4407Z" fill="url(#paint8_linear_933_82358)"/>
<path d="M18.0526 10.5173H6.01757C5.18672 10.5173 4.51318 11.1814 4.51318 12.0005C4.51318 12.8197 5.18672 13.4838 6.01757 13.4838H18.0526C18.8835 13.4838 19.557 12.8197 19.557 12.0005C19.557 11.1814 18.8835 10.5173 18.0526 10.5173Z" fill="url(#paint9_linear_933_82358)"/>
</g>
<path d="M42.422 19.867C45.3537 19.867 47.4199 18.2225 47.4199 15.7051C47.4406 13.5332 46.1129 12.274 43.8982 11.4825L42.3797 10.9343C40.8406 10.3862 40.102 9.9194 40.102 8.86376C40.102 7.80812 41.1986 7.19934 42.4643 7.19934C43.6454 7.19934 44.5521 7.6661 45.3114 8.53902L47.0196 6.93521C45.9231 5.65613 44.3417 4.96594 42.4859 4.96594C39.7017 4.96594 37.6148 6.50915 37.6148 9.02659C37.6148 10.9959 38.7743 12.2541 41.1572 13.0872L42.8025 13.6553C44.2364 14.1628 44.9327 14.8123 44.9327 15.848C44.9327 16.9235 43.9207 17.6345 42.5075 17.6345C41.052 17.6345 39.8079 16.9443 39.028 15.7874L37.0876 17.2691C37.9718 18.8313 40.0174 19.867 42.422 19.867ZM54.1355 19.8263C56.3503 19.8263 57.9946 18.9326 58.9437 17.4717L57.1725 16.2533C56.603 17.147 55.654 17.7965 54.1571 17.7965C52.3859 17.7965 51.015 16.7209 50.9098 15.0357H59.1974C59.218 14.7109 59.2181 14.5282 59.2181 14.3048C59.2181 11.0366 56.9197 9.26992 54.1355 9.26992C50.9304 9.26992 48.6311 11.5639 48.6311 14.5481C48.6311 17.6535 50.9295 19.8263 54.1355 19.8263ZM51.0141 13.4111C51.3514 11.9086 52.68 11.1578 54.051 11.1578C55.4003 11.1578 56.6237 11.9493 56.8765 13.4111H51.0141ZM71.2689 23.8662V9.47254H68.949V10.833C68.3589 10.0207 67.0932 9.26992 65.5747 9.26992C62.6853 9.26992 60.4922 11.6453 60.4922 14.5481C60.4922 17.4509 62.6853 19.8263 65.5747 19.8263C67.0932 19.8263 68.3589 19.0755 68.949 18.2632V23.8662H71.2689ZM65.9966 17.7956C64.1408 17.7956 62.8545 16.3745 62.8545 14.5472C62.8545 12.72 64.1408 11.2989 65.9966 11.2989C67.8524 11.2989 69.1388 12.72 69.1388 14.5472C69.1388 16.3745 67.8524 17.7956 65.9966 17.7956ZM77.2713 19.8263C78.6207 19.8263 79.7388 19.2782 80.3505 18.2424V19.6228H82.6705V9.47254H80.3505V14.4667C80.3505 16.6594 79.2963 17.7965 77.7778 17.7965C76.4285 17.7965 75.6693 16.8014 75.6693 15.1777V9.47254H73.3493V15.5432C73.3493 18.1411 74.8461 19.8263 77.2713 19.8263ZM89.9255 19.8263C92.1402 19.8263 93.7846 18.9326 94.7336 17.4717L92.9624 16.2533C92.393 17.147 91.4439 17.7965 89.9471 17.7965C88.1759 17.7965 86.8049 16.7209 86.6997 15.0357H94.9873C95.008 14.7109 95.008 14.5282 95.008 14.3048C95.008 11.0366 92.7096 9.26992 89.9255 9.26992C86.7204 9.26992 84.4211 11.5639 84.4211 14.5481C84.4211 17.6535 86.7194 19.8263 89.9255 19.8263ZM86.804 13.4111C87.1413 11.9086 88.47 11.1578 89.8409 11.1578C91.1902 11.1578 92.4137 11.9493 92.6664 13.4111H86.804ZM96.7595 19.6228H99.0795V14.6286C99.0795 12.4359 100.261 11.2989 101.8 11.2989C103.149 11.2989 103.993 12.2532 103.993 13.8769V19.6219H106.313V13.5115C106.313 10.9334 104.731 9.26811 102.285 9.26811C100.914 9.26811 99.7325 9.81628 99.0795 10.852V9.47254H96.7595V19.6228ZM113.456 19.8263C115.649 19.8263 117.463 18.73 118.369 17.0249L116.344 15.9692C115.838 17.005 114.805 17.7558 113.455 17.7558C111.579 17.7558 110.25 16.3546 110.25 14.5481C110.25 12.7417 111.579 11.3405 113.455 11.3405C114.804 11.3405 115.838 12.0913 116.344 13.127L118.369 12.0714C117.463 10.3663 115.649 9.26992 113.456 9.26992C110.293 9.26992 107.889 11.544 107.889 14.5481C107.889 17.5522 110.293 19.8263 113.456 19.8263ZM124.624 19.8263C126.838 19.8263 128.483 18.9326 129.432 17.4717L127.66 16.2533C127.091 17.147 126.142 17.7965 124.645 17.7965C122.873 17.7965 121.503 16.7209 121.397 15.0357H129.685C129.706 14.7109 129.706 14.5282 129.706 14.3048C129.706 11.0366 127.408 9.26992 124.624 9.26992C121.418 9.26992 119.119 11.5639 119.119 14.5481C119.119 17.6535 121.418 19.8263 124.624 19.8263ZM121.502 13.4111C121.839 11.9086 123.168 11.1578 124.539 11.1578C125.888 11.1578 127.112 11.9493 127.364 13.4111H121.502Z" fill="black"/>
<defs>
<linearGradient id="paint0_linear_933_82358" x1="15.0438" y1="0.1347" x2="15.0438" y2="23.8907" gradientUnits="userSpaceOnUse">
<stop stop-color="#1D273D"/>
<stop offset="1" stop-color="#0D0F13"/>
</linearGradient>
<linearGradient id="paint1_linear_933_82358" x1="4.97666" y1="7.53046" x2="6.98389" y2="4.8085" gradientUnits="userSpaceOnUse">
<stop stop-color="#4462FE"/>
<stop offset="1" stop-color="#7D69FA"/>
</linearGradient>
<linearGradient id="paint2_linear_933_82358" x1="4.77759" y1="7.55221" x2="7.30426" y2="7.42085" gradientUnits="userSpaceOnUse">
<stop stop-color="#3757FD"/>
<stop offset="1" stop-color="#6980FA"/>
</linearGradient>
<linearGradient id="paint3_linear_933_82358" x1="4.77759" y1="7.55221" x2="7.30426" y2="7.42085" gradientUnits="userSpaceOnUse">
<stop stop-color="#2447FF"/>
<stop offset="1" stop-color="#6980FA"/>
</linearGradient>
<linearGradient id="paint4_linear_933_82358" x1="4.93867" y1="18.923" x2="6.91622" y2="16.7978" gradientUnits="userSpaceOnUse">
<stop stop-color="#BC3EE6"/>
<stop offset="1" stop-color="#D972F1"/>
</linearGradient>
<linearGradient id="paint5_linear_933_82358" x1="23.1736" y1="12.984" x2="25.0018" y2="11.0108" gradientUnits="userSpaceOnUse">
<stop stop-color="#29BDFF"/>
<stop offset="1" stop-color="#96E7FB"/>
</linearGradient>
<linearGradient id="paint6_linear_933_82358" x1="22.8074" y1="13.4634" x2="25.4199" y2="13.3363" gradientUnits="userSpaceOnUse">
<stop stop-color="#23BBFF"/>
<stop offset="1" stop-color="#85E7FF"/>
</linearGradient>
<linearGradient id="paint7_linear_933_82358" x1="11.7388" y1="7.53046" x2="24.1004" y2="4.52233" gradientUnits="userSpaceOnUse">
<stop stop-color="#23BBFF"/>
<stop offset="1" stop-color="#85E7FF"/>
</linearGradient>
<linearGradient id="paint8_linear_933_82358" x1="11.8528" y1="19.4085" x2="23.7185" y2="16.324" gradientUnits="userSpaceOnUse">
<stop stop-color="#2447FF"/>
<stop offset="1" stop-color="#6980FA"/>
</linearGradient>
<linearGradient id="paint9_linear_933_82358" x1="6.53423" y1="13.5069" x2="17.867" y2="10.423" gradientUnits="userSpaceOnUse">
<stop stop-color="#6634FF"/>
<stop offset="1" stop-color="#9C6DFF"/>
</linearGradient>
<clipPath id="clip0_933_82358">
<rect width="30.0877" height="23.7314" fill="black" transform="translate(0 0.134766)"/>
</clipPath>
</defs>
</svg>
