<svg width="20" height="20" viewBox="0 0 20 20" fill="none" xmlns="http://www.w3.org/2000/svg">
<path d="M16.362 6.98737C16.3717 7.11756 16.3717 7.24775 16.3717 7.37914C16.3717 11.3827 13.0697 16 7.03173 16V15.9976C5.2481 16 3.50152 15.5284 2 14.6393C2.25935 14.6681 2.52001 14.6825 2.78131 14.6831C4.25944 14.6843 5.69531 14.2265 6.85818 13.3836C5.4535 13.359 4.22173 12.5136 3.79143 11.2795C4.28349 11.3671 4.79049 11.3491 5.27345 11.2273C3.74203 10.9417 2.64026 9.6998 2.64026 8.25749V8.21909C3.09657 8.45368 3.60748 8.58387 4.13008 8.59827C2.68771 7.70852 2.2431 5.93744 3.11412 4.55272C4.78074 6.4456 7.23973 7.59633 9.87942 7.71812C9.61487 6.66579 9.97627 5.56306 10.8291 4.82331C12.1512 3.67618 14.2306 3.73497 15.4734 4.9547C16.2086 4.82091 16.9132 4.57192 17.558 4.21914C17.3129 4.9205 16.8001 5.51626 16.115 5.89484C16.7656 5.82404 17.4013 5.66325 18 5.41787C17.5593 6.02743 17.0042 6.5584 16.362 6.98737Z" fill="black" fill-opacity="0.8"/>
</svg>
