<svg width="20" height="20" viewBox="0 0 20 20" fill="none" xmlns="http://www.w3.org/2000/svg">
<path fill-rule="evenodd" clip-rule="evenodd" d="M1 6.01534V14.1745C1 15.8398 2.37001 17.1898 4.06 17.1898H15.94C17.63 17.1898 19 15.8398 19 14.1745V6.01534C19 4.35001 17.63 3 15.94 3H4.06C2.37001 3 1 4.35001 1 6.01534ZM5.5 6.54745C5.5 6.05765 5.09705 5.66059 4.6 5.66059C4.10294 5.66059 3.7 6.05765 3.7 6.54745C3.7 7.03725 4.10294 7.43431 4.6 7.43431C5.09705 7.43431 5.5 7.03725 5.5 6.54745ZM4.6 12.7498C5.09705 12.7498 5.5 13.1469 5.5 13.6367C5.5 14.1265 5.09705 14.5236 4.6 14.5236C4.10294 14.5236 3.7 14.1265 3.7 13.6367C3.7 13.1469 4.10294 12.7498 4.6 12.7498ZM16.3 10.0949C16.3 9.6051 15.8971 9.20804 15.4 9.20804C14.9029 9.20804 14.5 9.6051 14.5 10.0949C14.5 10.5847 14.9029 10.9818 15.4 10.9818C15.8971 10.9818 16.3 10.5847 16.3 10.0949ZM8.2 5.66059H15.4C15.8971 5.66059 16.3 6.05765 16.3 6.54745C16.3 7.03725 15.8971 7.43431 15.4 7.43431H8.2C7.70295 7.43431 7.3 7.03725 7.3 6.54745C7.3 6.05765 7.70295 5.66059 8.2 5.66059ZM15.4 12.7498H8.2C7.70295 12.7498 7.3 13.1469 7.3 13.6367C7.3 14.1265 7.70295 14.5236 8.2 14.5236H15.4C15.8971 14.5236 16.3 14.1265 16.3 13.6367C16.3 13.1469 15.8971 12.7498 15.4 12.7498ZM4.6 9.20804H11.8C12.2971 9.20804 12.7 9.6051 12.7 10.0949C12.7 10.5847 12.2971 10.9818 11.8 10.9818H4.6C4.10294 10.9818 3.7 10.5847 3.7 10.0949C3.7 9.6051 4.10294 9.20804 4.6 9.20804Z" fill="black" fill-opacity="0.8"/>
<path fill-rule="evenodd" clip-rule="evenodd" d="M1 6.01534V14.1745C1 15.8398 2.37001 17.1898 4.06 17.1898H15.94C17.63 17.1898 19 15.8398 19 14.1745V6.01534C19 4.35001 17.63 3 15.94 3H4.06C2.37001 3 1 4.35001 1 6.01534ZM5.5 6.54745C5.5 6.05765 5.09705 5.66059 4.6 5.66059C4.10294 5.66059 3.7 6.05765 3.7 6.54745C3.7 7.03725 4.10294 7.43431 4.6 7.43431C5.09705 7.43431 5.5 7.03725 5.5 6.54745ZM4.6 12.7498C5.09705 12.7498 5.5 13.1469 5.5 13.6367C5.5 14.1265 5.09705 14.5236 4.6 14.5236C4.10294 14.5236 3.7 14.1265 3.7 13.6367C3.7 13.1469 4.10294 12.7498 4.6 12.7498ZM16.3 10.0949C16.3 9.6051 15.8971 9.20804 15.4 9.20804C14.9029 9.20804 14.5 9.6051 14.5 10.0949C14.5 10.5847 14.9029 10.9818 15.4 10.9818C15.8971 10.9818 16.3 10.5847 16.3 10.0949ZM8.2 5.66059H15.4C15.8971 5.66059 16.3 6.05765 16.3 6.54745C16.3 7.03725 15.8971 7.43431 15.4 7.43431H8.2C7.70295 7.43431 7.3 7.03725 7.3 6.54745C7.3 6.05765 7.70295 5.66059 8.2 5.66059ZM15.4 12.7498H8.2C7.70295 12.7498 7.3 13.1469 7.3 13.6367C7.3 14.1265 7.70295 14.5236 8.2 14.5236H15.4C15.8971 14.5236 16.3 14.1265 16.3 13.6367C16.3 13.1469 15.8971 12.7498 15.4 12.7498ZM4.6 9.20804H11.8C12.2971 9.20804 12.7 9.6051 12.7 10.0949C12.7 10.5847 12.2971 10.9818 11.8 10.9818H4.6C4.10294 10.9818 3.7 10.5847 3.7 10.0949C3.7 9.6051 4.10294 9.20804 4.6 9.20804Z" fill="black" fill-opacity="0.8"/>
</svg>
