<svg xmlns="http://www.w3.org/2000/svg" viewBox="0 0 94.04 19.52"><g id="Layer_2" data-name="Layer 2"><g id="Layer_1-2" data-name="Layer 1"><path d="M5.42,15.39c3,0,5.07-1.7,5.07-4.3,0-2.24-1.33-3.54-3.57-4.36L5.37,6.16C3.81,5.6,3.06,5.12,3.06,4s1.11-1.72,2.4-1.72A3.61,3.61,0,0,1,8.35,3.69L10.08,2a5.82,5.82,0,0,0-4.6-2C2.65,0,.54,1.59.54,4.19c0,2,1.17,3.34,3.59,4.2L5.8,9C7.26,9.5,8,10.17,8,11.24s-1,1.84-2.47,1.84A4.17,4.17,0,0,1,2,11.18L0,12.71A6.09,6.09,0,0,0,5.42,15.39Zm11.89,0a5.49,5.49,0,0,0,4.88-2.44l-1.8-1.25a3.37,3.37,0,0,1-3.06,1.59A3.07,3.07,0,0,1,14,10.4h8.42c0-.34,0-.53,0-.76a4.9,4.9,0,0,0-5.16-5.2A5.38,5.38,0,0,0,11.72,9.9,5.3,5.3,0,0,0,17.31,15.35ZM14.14,8.72a3,3,0,0,1,3.08-2.33,2.78,2.78,0,0,1,2.87,2.33Zm20.57,10.8V4.65H32.35V6.06a4.29,4.29,0,0,0-3.42-1.62A5.28,5.28,0,0,0,23.76,9.9a5.27,5.27,0,0,0,5.17,5.45,4.29,4.29,0,0,0,3.42-1.62v5.79Zm-5.36-6.27a3.18,3.18,0,0,1-3.19-3.36,3.19,3.19,0,1,1,6.38,0A3.18,3.18,0,0,1,29.35,13.25Zm11.45,2.1a3.45,3.45,0,0,0,3.13-1.64v1.43h2.35V4.65H43.93V9.81c0,2.27-1.07,3.44-2.61,3.44-1.37,0-2.14-1-2.14-2.7V4.65H36.82v6.27C36.82,13.61,38.34,15.35,40.8,15.35Zm12.85,0a5.49,5.49,0,0,0,4.88-2.44l-1.8-1.25a3.37,3.37,0,0,1-3.06,1.59,3.06,3.06,0,0,1-3.29-2.85h8.41c0-.34,0-.53,0-.76a4.9,4.9,0,0,0-5.16-5.2A5.38,5.38,0,0,0,48.06,9.9,5.31,5.31,0,0,0,53.65,15.35ZM50.48,8.72a3,3,0,0,1,3.08-2.33,2.78,2.78,0,0,1,2.87,2.33Zm10.11,6.42H63V10c0-2.27,1.19-3.44,2.76-3.44,1.37,0,2.22,1,2.22,2.66v5.94h2.36V8.83c0-2.67-1.61-4.39-4.09-4.39A3.68,3.68,0,0,0,63,6.08V4.65H60.59Zm17,.21a5.5,5.5,0,0,0,5-2.9l-2-1.09A3.25,3.25,0,0,1,74.29,9.9a3.25,3.25,0,0,1,6.19-1.47l2-1.09A5.69,5.69,0,0,0,71.89,9.9,5.44,5.44,0,0,0,77.54,15.35Zm11.34,0a5.49,5.49,0,0,0,4.88-2.44L92,11.66a3.4,3.4,0,0,1-3.07,1.59,3.06,3.06,0,0,1-3.29-2.85H94c0-.34,0-.53,0-.76a4.9,4.9,0,0,0-5.16-5.2A5.38,5.38,0,0,0,83.29,9.9,5.31,5.31,0,0,0,88.88,15.35ZM85.71,8.72A3,3,0,0,1,88.8,6.39a2.78,2.78,0,0,1,2.87,2.33Z"/></g></g></svg>