<svg width="95" height="21" viewBox="0 0 95 21" fill="none" xmlns="http://www.w3.org/2000/svg">
<path d="M6.37342 16.0174C9.35019 16.0174 11.4482 14.319 11.4482 11.7193C11.4692 9.47635 10.1211 8.176 7.8723 7.35861L6.33048 6.7925C4.76768 6.2264 4.01776 5.74437 4.01776 4.65421C4.01776 3.56404 5.13119 2.93535 6.41635 2.93535C7.61565 2.93535 8.53635 3.41738 9.30725 4.31884L11.0418 2.66258C9.92837 1.34167 8.32263 0.628906 6.4383 0.628906C3.61132 0.628906 1.49228 2.22259 1.49228 4.82236C1.49228 6.85603 2.66963 8.15545 5.08921 9.01581L6.75983 9.60246C8.21577 10.1265 8.92276 10.7973 8.92276 11.8669C8.92276 12.9776 7.8952 13.7118 6.46024 13.7118C4.98235 13.7118 3.71913 12.9991 2.92723 11.8043L0.957031 13.3344C1.85483 14.9477 3.93189 16.0174 6.37342 16.0174ZM18.2671 15.9753C20.5159 15.9753 22.1856 15.0524 23.1492 13.5437L21.3508 12.2854C20.7726 13.2083 19.809 13.8791 18.2891 13.8791C16.4906 13.8791 15.0986 12.7683 14.9917 11.028H23.4068C23.4278 10.6926 23.4278 10.5039 23.4278 10.2732C23.4278 6.89806 21.0941 5.07365 18.2671 5.07365C15.0127 5.07365 12.6781 7.44268 12.6781 10.5245C12.6781 13.7315 15.0118 15.9753 18.2671 15.9753ZM15.0976 9.35024C15.4402 7.7986 16.7893 7.02324 18.1813 7.02324C19.5514 7.02324 20.7936 7.84063 21.0502 9.35024H15.0976ZM35.6641 20.1473V5.2829H33.3084V6.68788C32.7093 5.849 31.4241 5.07365 29.8823 5.07365C26.9484 5.07365 24.7216 7.52675 24.7216 10.5245C24.7216 13.5222 26.9484 15.9753 29.8823 15.9753C31.4241 15.9753 32.7093 15.2 33.3084 14.3611V20.1473H35.6641ZM30.3107 13.8781C28.4263 13.8781 27.1202 12.4106 27.1202 10.5235C27.1202 8.63654 28.4263 7.16897 30.3107 7.16897C32.195 7.16897 33.5011 8.63654 33.5011 10.5235C33.5011 12.4106 32.195 13.8781 30.3107 13.8781ZM41.7588 15.9753C43.1289 15.9753 44.2643 15.4092 44.8854 14.3396V15.7651H47.241V5.2829H44.8854V10.4404C44.8854 12.7048 43.8149 13.8791 42.2731 13.8791C40.903 13.8791 40.1321 12.8515 40.1321 11.1747V5.2829H37.7764V11.5521C37.7764 14.235 39.2963 15.9753 41.7588 15.9753ZM54.6076 15.9753C56.8564 15.9753 58.5261 15.0524 59.4897 13.5437L57.6912 12.2854C57.113 13.2083 56.1494 13.8791 54.6295 13.8791C52.8311 13.8791 51.4391 12.7683 51.3322 11.028H59.7473C59.7683 10.6926 59.7683 10.5039 59.7683 10.2732C59.7683 6.89806 57.4346 5.07365 54.6076 5.07365C51.3532 5.07365 49.0185 7.44268 49.0185 10.5245C49.0185 13.7315 51.3522 15.9753 54.6076 15.9753ZM51.4381 9.35024C51.7806 7.7986 53.1297 7.02324 54.5217 7.02324C55.8918 7.02324 57.134 7.84063 57.3907 9.35024H51.4381ZM61.5467 15.7651H63.9024V10.6076C63.9024 8.34321 65.1017 7.16897 66.6645 7.16897C68.0346 7.16897 68.8913 8.15451 68.8913 9.83133V15.7642H71.247V9.45393C71.247 6.79157 69.6412 5.07178 67.1568 5.07178C65.7648 5.07178 64.5655 5.63788 63.9024 6.7075V5.2829H61.5467V15.7651ZM78.5 15.9753C80.7269 15.9753 82.5683 14.8431 83.489 13.0822L81.4329 11.992C80.9186 13.0617 79.8701 13.837 78.499 13.837C76.5937 13.837 75.2446 12.39 75.2446 10.5245C75.2446 8.65896 76.5937 7.21194 78.499 7.21194C79.8691 7.21194 80.9186 7.9873 81.4329 9.05691L83.489 7.96674C82.5683 6.20585 80.7269 5.07365 78.5 5.07365C75.2885 5.07365 72.847 7.42213 72.847 10.5245C72.847 13.6268 75.2885 15.9753 78.5 15.9753ZM89.8394 15.9753C92.0882 15.9753 93.7579 15.0524 94.7215 13.5437L92.923 12.2854C92.3448 13.2083 91.3812 13.8791 89.8613 13.8791C88.0619 13.8791 86.6708 12.7683 86.563 11.028H94.9791C95.0001 10.6926 95.0001 10.5039 95.0001 10.2732C95.0001 6.89806 92.6664 5.07365 89.8394 5.07365C86.584 5.07365 84.2503 7.44268 84.2503 10.5245C84.2503 13.7315 86.584 15.9753 89.8394 15.9753ZM86.6699 9.35024C87.0124 7.7986 88.3615 7.02324 89.7535 7.02324C91.1236 7.02324 92.3658 7.84063 92.6225 9.35024H86.6699Z" fill="white"/>
</svg>
