<svg width="126" height="28" viewBox="0 0 126 28" fill="none" xmlns="http://www.w3.org/2000/svg">
<mask id="mask0_35_152" style="mask-type:luminance" maskUnits="userSpaceOnUse" x="0" y="4" width="126" height="20">
<path d="M126 4H0V24H126V4Z" fill="white"/>
</mask>
<g mask="url(#mask0_35_152)">
<path fill-rule="evenodd" clip-rule="evenodd" d="M58.361 8.29822C58.9976 8.29822 59.5256 8.40668 59.9452 8.62369C60.3647 8.83587 60.6999 9.0963 60.9507 9.40493C61.2014 9.71357 61.3943 10.0102 61.5293 10.2947H61.674V8.44289H64.4807V23.7203H61.6307V17.7887H61.5293C61.3895 18.078 61.1894 18.3746 60.929 18.6784C60.6734 18.9774 60.3358 19.2306 59.9162 19.438C59.4967 19.6405 58.9783 19.7418 58.361 19.7418C57.5027 19.7418 56.731 19.5199 56.0463 19.0762C55.3615 18.6326 54.8189 17.9864 54.4187 17.1377C54.0184 16.2841 53.8184 15.2424 53.8184 14.0127C53.8184 12.7589 54.0233 11.7076 54.4332 10.8589C54.8431 10.0101 55.3904 9.37117 56.0752 8.94198C56.7648 8.51278 57.5268 8.29822 58.361 8.29822ZM59.2146 10.5985C58.6697 10.5985 58.2115 10.7432 57.8402 11.0325C57.4737 11.3219 57.1964 11.7221 57.0083 12.2333C56.8202 12.7444 56.7263 13.3328 56.7263 13.9982C56.7263 14.6685 56.8202 15.2641 57.0083 15.7849C57.2012 16.3009 57.481 16.706 57.8475 17.0002C58.2188 17.2943 58.6745 17.4415 59.2146 17.4415C59.7402 17.4415 60.1863 17.2992 60.5528 17.0146C60.9241 16.7253 61.2063 16.3227 61.3992 15.8067C61.5921 15.2907 61.6885 14.6878 61.6885 13.9982C61.6885 13.3086 61.5921 12.7107 61.3992 12.2043C61.2111 11.6932 60.9314 11.2977 60.5601 11.018C60.1936 10.7383 59.745 10.5985 59.2146 10.5985Z" fill="white"/>
<path d="M35.6388 8.29822C36.9939 8.29822 38.0597 8.58517 38.8361 9.15904C39.6173 9.73291 40.0851 10.5117 40.2394 11.4955L37.6353 11.7124C37.5774 11.4713 37.4665 11.2495 37.3025 11.047C37.1434 10.8396 36.9288 10.6756 36.6588 10.5551C36.3887 10.4297 36.0632 10.367 35.6822 10.367C35.1711 10.367 34.7418 10.4756 34.3946 10.6926C34.0474 10.9096 33.8737 11.1964 33.8737 11.5533C33.8737 11.8474 33.9872 12.091 34.2138 12.2839C34.4405 12.4768 34.8239 12.6336 35.364 12.7542L37.317 13.1592C38.3828 13.381 39.1761 13.7379 39.6969 14.2297C40.2225 14.7216 40.4853 15.3678 40.4853 16.1683C40.4853 16.882 40.2779 17.509 39.8632 18.0491C39.4485 18.5892 38.877 19.0111 38.1489 19.315C37.4207 19.6188 36.584 19.7707 35.6388 19.7707C34.2258 19.7707 33.0925 19.4741 32.239 18.881C31.3902 18.2878 30.8887 17.4703 30.7344 16.4287L33.5266 16.2262C33.6327 16.6988 33.8666 17.058 34.2283 17.304C34.5948 17.5499 35.065 17.6729 35.6388 17.6729C36.2223 17.6729 36.6901 17.5572 37.0422 17.3258C37.399 17.0895 37.5774 16.7952 37.5774 16.4432C37.5774 16.1442 37.4569 15.8982 37.2158 15.7053C36.9795 15.5076 36.6129 15.3581 36.1162 15.2569L34.2065 14.8663C33.1311 14.6445 32.333 14.2683 31.8121 13.7379C31.2962 13.2074 31.0382 12.5322 31.0382 11.7124C31.0382 11.0132 31.2287 10.408 31.6097 9.89685C31.9955 9.38567 32.5332 8.99262 33.2228 8.71774C33.9172 8.43805 34.7226 8.29822 35.6388 8.29822Z" fill="white"/>
<path fill-rule="evenodd" clip-rule="evenodd" d="M47.2018 8.29822C47.9107 8.29822 48.5762 8.41151 49.1983 8.63817C49.8204 8.86482 50.3678 9.20966 50.8404 9.67261C51.3129 10.1356 51.6818 10.7215 51.9471 11.4304C52.2171 12.1344 52.3521 12.9663 52.3521 13.926V14.7505H44.6994C44.7029 15.3361 44.8134 15.8401 45.0317 16.2624C45.2535 16.6916 45.5646 17.0219 45.9649 17.2534C46.3652 17.4848 46.8353 17.6006 47.3754 17.6006C47.7371 17.6006 48.0651 17.5499 48.3592 17.4486C48.6582 17.3426 48.9138 17.1882 49.126 16.9857C49.343 16.7832 49.5069 16.5348 49.6178 16.2407L52.2654 16.4721C52.1159 17.1376 51.8217 17.7187 51.3829 18.2154C50.944 18.7073 50.3822 19.0907 49.6974 19.3656C49.0126 19.6356 48.2241 19.7707 47.332 19.7707C46.2036 19.7707 45.2319 19.5392 44.4169 19.0762C43.6019 18.6085 42.9749 17.9478 42.5361 17.0942C42.0973 16.2358 41.8779 15.2231 41.8779 14.0561C41.8779 12.9133 42.0973 11.9102 42.5361 11.047C42.9798 10.179 43.5995 9.50379 44.3952 9.02155C45.1909 8.53933 46.1264 8.29822 47.2018 8.29822ZM47.2452 10.4682C46.7437 10.4682 46.3024 10.5865 45.9215 10.8228C45.5405 11.0591 45.2415 11.3725 45.0245 11.7631C44.8322 12.1128 44.7253 12.4962 44.7033 12.9132H49.6468C49.6468 12.4406 49.5455 12.0211 49.343 11.6546C49.1404 11.2833 48.8583 10.9939 48.4966 10.7865C48.1398 10.5743 47.7226 10.4682 47.2452 10.4682Z" fill="white"/>
<path fill-rule="evenodd" clip-rule="evenodd" d="M84.0485 8.29822C84.7574 8.29822 85.4229 8.41152 86.045 8.63817C86.6671 8.86482 87.2144 9.20967 87.687 9.67261C88.1596 10.1356 88.5286 10.7215 88.7938 11.4304C89.0639 12.1344 89.1988 12.9663 89.1988 13.926V14.7505H81.546C81.5495 15.3361 81.6602 15.8401 81.8784 16.2624C82.1002 16.6915 82.4113 17.0219 82.8115 17.2534C83.2118 17.4848 83.682 17.6006 84.2222 17.6006C84.5838 17.6006 84.9117 17.5499 85.2059 17.4486C85.5049 17.3426 85.7604 17.1882 85.9726 16.9857C86.1896 16.7832 86.3536 16.5349 86.4645 16.2407L89.1121 16.4721C88.9626 17.1376 88.6683 17.7187 88.2295 18.2154C87.7907 18.7073 87.2289 19.0907 86.5441 19.3656C85.8593 19.6356 85.0709 19.7707 84.1787 19.7707C83.0503 19.7707 82.0785 19.5392 81.2635 19.0762C80.4485 18.6085 79.8217 17.9478 79.3828 17.0942C78.944 16.2358 78.7246 15.2231 78.7246 14.0561C78.7246 12.9132 78.944 11.9102 79.3828 11.047C79.8265 10.179 80.4461 9.50379 81.2418 9.02155C82.0375 8.53931 82.9731 8.29822 84.0485 8.29822ZM84.0918 10.4682C83.5903 10.4682 83.1491 10.5865 82.7682 10.8228C82.3872 11.0591 82.0881 11.3725 81.8711 11.7631C81.6788 12.1128 81.572 12.4962 81.5501 12.9132H86.4935C86.4935 12.4406 86.3922 12.0211 86.1897 11.6546C85.9871 11.2833 85.705 10.9939 85.3434 10.7865C84.9865 10.5743 84.5693 10.4682 84.0918 10.4682Z" fill="white"/>
<path d="M108.365 8.29822C109.301 8.29822 110.126 8.4694 110.839 8.81179C111.553 9.14936 112.12 9.62919 112.539 10.2513C112.959 10.8685 113.193 11.5919 113.241 12.4214H110.535C110.444 11.8765 110.215 11.4303 109.848 11.0831C109.487 10.7311 109.007 10.5551 108.409 10.5551C107.902 10.5551 107.459 10.6926 107.078 10.9674C106.702 11.2375 106.407 11.6304 106.195 12.1464C105.983 12.6576 105.877 13.2749 105.877 13.9982C105.877 14.7312 105.981 15.3582 106.188 15.879C106.4 16.395 106.694 16.7929 107.071 17.0726C107.451 17.3474 107.898 17.4849 108.409 17.4849C108.78 17.4849 109.113 17.4125 109.407 17.2678C109.701 17.1183 109.945 16.9061 110.138 16.6313C110.335 16.3516 110.468 16.014 110.535 15.6186H113.241C113.188 16.4336 112.956 17.1545 112.546 17.7814C112.141 18.4035 111.584 18.8906 110.875 19.2427C110.171 19.5947 109.339 19.7707 108.38 19.7707C107.256 19.7707 106.292 19.5272 105.486 19.0401C104.681 18.553 104.061 17.8803 103.627 17.0219C103.198 16.1587 102.983 15.1653 102.983 14.0416C102.983 12.9084 103.203 11.9102 103.642 11.047C104.081 10.1838 104.7 9.51097 105.501 9.02873C106.306 8.54168 107.261 8.29822 108.365 8.29822Z" fill="white"/>
<path fill-rule="evenodd" clip-rule="evenodd" d="M119.961 8.29822C120.67 8.29823 121.335 8.41153 121.957 8.63817C122.579 8.86482 123.127 9.20966 123.599 9.67261C124.072 10.1356 124.441 10.7215 124.706 11.4304C124.976 12.1345 125.111 12.9663 125.111 13.926V14.7505H117.458C117.462 15.3361 117.572 15.8401 117.791 16.2624C118.012 16.6915 118.324 17.0219 118.724 17.2534C119.124 17.4848 119.594 17.6006 120.134 17.6006C120.496 17.6006 120.824 17.5499 121.118 17.4486C121.417 17.3426 121.673 17.1882 121.885 16.9857C122.102 16.7832 122.266 16.5348 122.377 16.2407L125.024 16.4721C124.875 17.1376 124.581 17.7187 124.142 18.2154C123.703 18.7073 123.141 19.0907 122.456 19.3656C121.772 19.6356 120.983 19.7707 120.091 19.7707C118.963 19.7707 117.991 19.5392 117.176 19.0762C116.361 18.6085 115.734 17.9478 115.295 17.0942C114.856 16.2358 114.637 15.2231 114.637 14.0561C114.637 12.9132 114.856 11.9102 115.295 11.047C115.739 10.179 116.358 9.50379 117.154 9.02155C117.95 8.53931 118.885 8.29822 119.961 8.29822ZM120.004 10.4682C119.503 10.4682 119.061 10.5865 118.68 10.8228C118.299 11.0591 118 11.3726 117.783 11.7631C117.591 12.1128 117.484 12.4962 117.462 12.9132H122.406C122.406 12.4406 122.304 12.0211 122.102 11.6546C121.899 11.2833 121.617 10.9939 121.256 10.7865C120.899 10.5743 120.482 10.4682 120.004 10.4682Z" fill="white"/>
<path d="M69.7095 15.0401C69.7143 15.7201 69.9 16.2602 70.2665 16.6604C70.633 17.0559 71.1176 17.2536 71.7204 17.2536C72.1014 17.2536 72.4631 17.1643 72.8055 16.9859C73.1479 16.8026 73.4275 16.535 73.6445 16.183C73.8615 15.8261 73.9676 15.3825 73.9628 14.852V8.44299H76.8129V19.5539H74.0642V17.5574H73.9483C73.6976 18.1939 73.2828 18.71 72.7041 19.1054C72.1303 19.5008 71.4262 19.6985 70.5919 19.6985C69.859 19.6985 69.2104 19.5322 68.6462 19.1994C68.0868 18.8667 67.6503 18.3892 67.3369 17.7671C67.0234 17.145 66.8643 16.3951 66.8594 15.5174V8.44299H69.7095V15.0401Z" fill="white"/>
<path d="M97.2761 8.29822C98.0477 8.29822 98.7181 8.46456 99.2871 8.79731C99.861 9.13006 100.307 9.60753 100.626 10.2296C100.944 10.8517 101.101 11.6015 101.096 12.4792V19.5537H98.2455V12.9566C98.2503 12.2429 98.067 11.686 97.6956 11.2857C97.3291 10.8855 96.8228 10.6853 96.1766 10.6853C95.7426 10.6853 95.3568 10.7794 95.0193 10.9674C94.6865 11.1555 94.4261 11.4303 94.238 11.792C94.05 12.1488 93.9535 12.5805 93.9487 13.0868V19.5537H91.0986V8.44289H93.8185V10.367H93.9487C94.1995 9.73044 94.6094 9.22655 95.1784 8.85523C95.7523 8.4839 96.4515 8.29822 97.2761 8.29822Z" fill="white"/>
<path d="M21.5034 13.8663C21.5034 12.9232 20.7388 12.1586 19.7956 12.1586C18.8525 12.1586 18.0879 12.9232 18.0879 13.8663C18.0879 14.8095 18.8525 15.5741 19.7956 15.5741C20.7388 15.5741 21.5034 14.8095 21.5034 13.8663Z" fill="white"/>
<path d="M4.24367 8.1648C4.24367 7.22162 3.47907 6.45703 2.5359 6.45703C1.59272 6.45703 0.828125 7.22162 0.828125 8.1648C0.828125 9.10797 1.59272 9.87257 2.5359 9.87257C3.47907 9.87257 4.24367 9.10797 4.24367 8.1648Z" fill="white"/>
<path d="M4.24367 19.6586C4.24367 18.7154 3.47907 17.9509 2.5359 17.9509C1.59272 17.9509 0.828125 18.7154 0.828125 19.6586C0.828125 20.6018 1.59272 21.3664 2.5359 21.3664C3.47907 21.3664 4.24367 20.6018 4.24367 19.6586Z" fill="white"/>
<path d="M21.6516 19.5679C21.6516 18.7806 21.0135 18.1425 20.2263 18.1425H7.56991C6.7827 18.1425 6.14453 18.7806 6.14453 19.5679C6.14453 20.3551 6.7827 20.9932 7.56991 20.9932H20.2263C21.0135 20.9932 21.6516 20.3551 21.6516 19.5679Z" fill="white"/>
<path d="M16.1873 13.8663C16.1873 13.0791 15.5491 12.4409 14.7619 12.4409H2.2535C1.46628 12.4409 0.828125 13.0791 0.828125 13.8663C0.828125 14.6535 1.4663 15.2917 2.2535 15.2917H14.7619C15.5491 15.2917 16.1873 14.6535 16.1873 13.8663Z" fill="white"/>
<path d="M21.6516 8.16476C21.6516 7.37754 21.0135 6.73938 20.2263 6.73938H7.56991C6.7827 6.73938 6.14453 7.37754 6.14453 8.16476C6.14453 8.95198 6.7827 9.59014 7.56991 9.59014H20.2263C21.0135 9.59014 21.6516 8.95198 21.6516 8.16476Z" fill="white"/>
</g>
</svg>
