<svg width="424" height="94" viewBox="0 0 424 94" fill="none" xmlns="http://www.w3.org/2000/svg">
<path d="M89 48H21C20.4696 48 19.9609 48.2107 19.5858 48.5858C19.2107 48.9609 19 49.4696 19 50C19 50.5304 19.2107 51.0391 19.5858 51.4142C19.9609 51.7893 20.4696 52 21 52H28C28.5304 52 29.0391 52.2107 29.4142 52.5858C29.7893 52.9609 30 53.4696 30 54C30 54.5304 29.7893 55.0391 29.4142 55.4142C29.0391 55.7893 28.5304 56 28 56H25C24.4696 56 23.9609 56.2107 23.5858 56.5858C23.2107 56.9609 23 57.4696 23 58C23 58.5304 23.2107 59.0391 23.5858 59.4142C23.9609 59.7893 24.4696 60 25 60H39C39.5304 60 40.0391 59.7893 40.4142 59.4142C40.7893 59.0391 41 58.5304 41 58C41 57.4696 40.7893 56.9609 40.4142 56.5858C40.0391 56.2107 39.5304 56 39 56H36C35.4696 56 34.9609 55.7893 34.5858 55.4142C34.2107 55.0391 34 54.5304 34 54C34 53.4696 34.2107 52.9609 34.5858 52.5858C34.9609 52.2107 35.4696 52 36 52H89C89.5304 52 90.0391 51.7893 90.4142 51.4142C90.7893 51.0391 91 50.5304 91 50C91 49.4696 90.7893 48.9609 90.4142 48.5858C90.0391 48.2107 89.5304 48 89 48Z" fill="#E77629"/>
<path d="M87 56H47C46.4696 56 45.9609 56.2107 45.5858 56.5858C45.2107 56.9609 45 57.4696 45 58C45 58.5304 45.2107 59.0391 45.5858 59.4142C45.9609 59.7893 46.4696 60 47 60H68C68.5304 60 69.0391 60.2107 69.4142 60.5858C69.7893 60.9609 70 61.4696 70 62C70 62.5304 69.7893 63.0391 69.4142 63.4142C69.0391 63.7893 68.5304 64 68 64H29C28.4696 64 27.9609 64.2107 27.5858 64.5858C27.2107 64.9609 27 65.4696 27 66C27 66.5304 27.2107 67.0391 27.5858 67.4142C27.9609 67.7893 28.4696 68 29 68H51C51.5304 68 52.0391 68.2107 52.4142 68.5858C52.7893 68.9609 53 69.4696 53 70C53 70.5304 52.7893 71.0391 52.4142 71.4142C52.0391 71.7893 51.5304 72 51 72H43C42.4696 72 41.9609 72.2107 41.5858 72.5858C41.2107 72.9609 41 73.4696 41 74C41 74.5304 41.2107 75.0391 41.5858 75.4142C41.9609 75.7893 42.4696 76 43 76H67C67.5304 76 68.0391 75.7893 68.4142 75.4142C68.7893 75.0391 69 74.5304 69 74C69 73.4696 68.7893 72.9609 68.4142 72.5858C68.0391 72.2107 67.5304 72 67 72H59C58.4696 72 57.9609 71.7893 57.5858 71.4142C57.2107 71.0391 57 70.5304 57 70C57 69.4696 57.2107 68.9609 57.5858 68.5858C57.9609 68.2107 58.4696 68 59 68H82C82.5304 68 83.0391 67.7893 83.4142 67.4142C83.7893 67.0391 84 66.5304 84 66C84 65.4696 83.7893 64.9609 83.4142 64.5858C83.0391 64.2107 82.5304 64 82 64H76C75.4696 64 74.9609 63.7893 74.5858 63.4142C74.2107 63.0391 74 62.5304 74 62C74 61.4696 74.2107 60.9609 74.5858 60.5858C74.9609 60.2107 75.4696 60 76 60H87C87.5304 60 88.0391 59.7893 88.4142 59.4142C88.7893 59.0391 89 58.5304 89 58C89 57.4696 88.7893 56.9609 88.4142 56.5858C88.0391 56.2107 87.5304 56 87 56Z" fill="#E77629"/>
<path d="M55 19C48.3696 19 42.0107 21.6339 37.3223 26.3223C32.6339 31.0107 30 37.3696 30 44H80C80 37.3696 77.3661 31.0107 72.6777 26.3223C67.9893 21.6339 61.6304 19 55 19Z" fill="#E77629"/>
<path fill-rule="evenodd" clip-rule="evenodd" d="M333.22 30.25C336.652 30.25 340.007 31.2678 342.86 33.1747C345.714 35.0816 347.937 37.7919 349.25 40.9628C350.563 44.1336 350.906 47.6227 350.236 50.9885C349.566 54.3543 347.912 57.4458 345.485 59.8718C343.057 62.2979 339.965 63.9495 336.599 64.6178C333.232 65.2862 329.744 64.9412 326.574 63.6264C323.403 62.3117 320.694 60.0864 318.789 57.2319C316.884 54.3774 315.868 51.0219 315.87 47.59C315.861 45.3094 316.303 43.0496 317.172 40.941C318.041 38.8324 319.319 36.9167 320.932 35.3046C322.545 33.6924 324.461 32.4157 326.57 31.5482C328.679 30.6806 330.939 30.2394 333.22 30.25ZM177.39 30.25C180.822 30.248 184.178 31.2642 187.033 33.1698C189.888 35.0755 192.113 37.7851 193.427 40.9558C194.742 44.1265 195.086 47.6159 194.417 50.9824C193.748 54.3489 192.095 57.4413 189.668 59.8683C187.241 62.2953 184.149 63.948 180.782 64.6171C177.416 65.2862 173.927 64.9418 170.756 63.6274C167.585 62.313 164.875 60.0876 162.97 57.2329C161.064 54.3782 160.048 51.0224 160.05 47.59C160.041 45.3103 160.483 43.0513 161.351 40.9433C162.219 38.8354 163.496 36.9201 165.108 35.3081C166.72 33.6961 168.635 32.4192 170.743 31.5511C172.851 30.6829 175.11 30.2407 177.39 30.25ZM255.76 26.05C256.134 26.0417 256.506 26.1096 256.854 26.2497C257.201 26.3897 257.516 26.5989 257.78 26.8646C258.043 27.1303 258.25 27.4468 258.388 27.795C258.526 28.1432 258.591 28.5158 258.58 28.89V66.72C258.599 67.0914 258.542 67.4628 258.413 67.8116C258.284 68.1604 258.085 68.4792 257.829 68.7486C257.572 69.0181 257.264 69.2325 256.922 69.3789C256.58 69.5253 256.212 69.6005 255.84 69.6C255.488 69.6094 255.138 69.5479 254.81 69.4193C254.482 69.2908 254.183 69.0976 253.931 68.8514C253.679 68.6052 253.48 68.3109 253.344 67.986C253.208 67.6611 253.139 67.3122 253.14 66.96V28.47C253.176 27.8051 253.47 27.1805 253.959 26.7287C254.448 26.2768 255.094 26.0334 255.76 26.05ZM111.67 26.12C112.045 26.117 112.416 26.1901 112.762 26.335C113.108 26.4798 113.421 26.6933 113.682 26.9626C113.943 27.2318 114.146 27.5512 114.28 27.9015C114.414 28.2517 114.475 28.6254 114.46 29V45.49H138.7V28.49C138.7 27 140.33 26.07 141.3 26.07C141.683 26.0562 142.065 26.1234 142.42 26.2674C142.775 26.4114 143.096 26.6289 143.361 26.9055C143.627 27.1822 143.831 27.5118 143.96 27.8727C144.089 28.2337 144.14 28.6178 144.11 29V66.79C144.119 67.1608 144.054 67.5298 143.918 67.8747C143.781 68.2197 143.577 68.5337 143.316 68.7979C143.056 69.062 142.745 69.271 142.402 69.4122C142.059 69.5535 141.691 69.6242 141.32 69.62C140.628 69.6097 139.968 69.3303 139.479 68.8412C138.99 68.3521 138.71 67.6917 138.7 67V50.82H114.46V66.82C114.485 67.1866 114.434 67.5545 114.308 67.8997C114.182 68.2449 113.985 68.5598 113.729 68.8239C113.473 69.088 113.165 69.2953 112.824 69.4325C112.483 69.5696 112.117 69.6335 111.75 69.62C111.058 69.6209 110.391 69.3558 109.889 68.8793C109.386 68.4029 109.086 67.7515 109.05 67.06V28.54C109.116 27.8862 109.419 27.2792 109.901 26.8334C110.384 26.3875 111.013 26.1338 111.67 26.12ZM212 25.94H229.4C234.73 25.94 241.61 29.68 241.61 37.84C241.61 43.35 238.61 47.57 231.1 49.44C232.34 51.04 239.39 60.77 242.67 65.44C245.1 68.94 240.21 71.44 238.37 68.82C235.37 64.54 224.5 49.41 223.79 48.43C223.473 48.0451 223.269 47.5805 223.198 47.0872C223.128 46.5939 223.194 46.0906 223.39 45.6325C223.586 45.1743 223.905 44.7788 224.31 44.4891C224.716 44.1995 225.193 44.0268 225.69 43.99H230.15C231.736 43.9718 233.251 43.3338 234.373 42.2125C235.494 41.0912 236.132 39.5757 236.15 37.99C236.15 33.99 233.47 31.5 229.15 31.4H214.59V67.4C214.597 67.7669 214.53 68.1315 214.392 68.4718C214.255 68.8122 214.05 69.1214 213.791 69.3809C213.531 69.6404 213.222 69.8449 212.882 69.9822C212.541 70.1195 212.177 70.1868 211.81 70.18C211.129 70.1754 210.476 69.9091 209.987 69.4362C209.497 68.9633 209.208 68.3201 209.18 67.64V28.35C209.18 27 211 25.94 212 25.94ZM368.37 25.94C369.499 26.2772 370.571 26.7829 371.55 27.44C377.964 31.2684 383.707 36.1229 388.55 41.81C391.621 45.5036 394.302 49.5049 396.55 53.75V28.62C396.524 28.2578 396.573 27.894 396.695 27.5518C396.816 27.2096 397.008 26.8964 397.257 26.6322C397.506 26.3679 397.808 26.1584 398.142 26.0169C398.477 25.8753 398.837 25.8049 399.2 25.81C399.946 25.8153 400.66 26.1161 401.185 26.6465C401.709 27.177 402.003 27.8938 402 28.64V66.85C402.005 67.2132 401.935 67.5734 401.793 67.9079C401.652 68.2424 401.442 68.5438 401.178 68.793C400.914 69.0422 400.6 69.2337 400.258 69.3554C399.916 69.4771 399.552 69.5264 399.19 69.5C396.64 69.5 396.34 66.73 395.75 65.06C395.42 64.15 395.01 62.94 394.63 62.06C393.72 59.95 392.34 57.78 391.38 55.69C387.93 48.26 378.65 38.24 370.73 33.28V66.88C370.73 68.8 369.63 70.06 367.92 70.06C367.222 70.0654 366.551 69.7954 366.051 69.3086C365.551 68.8219 365.263 68.1576 365.25 67.46V28.22C365.274 27.8513 365.379 27.4924 365.557 27.1687C365.735 26.845 365.982 26.5644 366.281 26.3468C366.58 26.1293 366.922 25.9801 367.285 25.9098C367.648 25.8395 368.022 25.8498 368.38 25.94H368.37ZM273.22 25.61H302.61C303.177 25.5664 303.744 25.6923 304.24 25.9717C304.735 26.2511 305.137 26.6715 305.393 27.1794C305.649 27.6873 305.748 28.2599 305.678 28.8244C305.608 29.3889 305.372 29.9199 305 30.35L301.71 34.54C294 44.45 286.1 54.6 278.25 64.38H302.45C304.45 64.38 305.65 65.51 305.65 67.07C305.65 68.29 305.01 69.86 302.65 69.86H272.65C270.55 69.86 268.82 67.61 270.78 65.19C272.38 63.19 275.04 59.85 275.22 59.62C282.61 50.08 290.11 40.49 297.59 31.09H273.59C271.59 31.09 270.36 30.09 270.36 28.42C270.344 28.0415 270.407 27.6639 270.547 27.3116C270.686 26.9593 270.898 26.6403 271.169 26.3752C271.439 26.1102 271.763 25.9051 272.118 25.7733C272.473 25.6414 272.852 25.5858 273.23 25.61H273.22ZM333.22 25C337.69 25 342.06 26.3257 345.777 28.8095C349.494 31.2932 352.39 34.8235 354.101 38.9537C355.811 43.0839 356.258 47.6285 355.385 52.0127C354.512 56.397 352.359 60.4239 349.197 63.5841C346.035 66.7444 342.008 68.8961 337.623 69.767C333.238 70.6379 328.694 70.1889 324.564 68.4768C320.435 66.7647 316.906 63.8665 314.424 60.1486C311.942 56.4307 310.618 52.0603 310.62 47.59C310.596 44.6159 311.164 41.6668 312.292 38.9145C313.419 36.1623 315.083 33.662 317.187 31.5594C319.29 29.4568 321.791 27.794 324.544 26.6678C327.297 25.5416 330.246 24.9747 333.22 25ZM177.39 25C181.861 24.998 186.232 26.3221 189.95 28.8046C193.668 31.2872 196.566 34.8167 198.278 38.9467C199.99 43.0768 200.438 47.6217 199.566 52.0066C198.695 56.3915 196.542 60.4193 193.381 63.5806C190.219 66.7419 186.191 68.8945 181.807 69.7662C177.422 70.6379 172.877 70.1895 168.747 68.4778C164.617 66.766 161.087 63.8677 158.605 60.1497C156.122 56.4316 154.798 52.0607 154.8 47.59C154.776 44.6168 155.344 41.6685 156.471 38.9169C157.597 36.1653 159.261 33.6655 161.363 31.563C163.465 29.4605 165.965 27.7975 168.717 26.6707C171.468 25.544 174.417 24.976 177.39 25Z" fill="#4C265F"/>
</svg>
