<svg width="256" height="50" viewBox="0 0 256 50" fill="none" xmlns="http://www.w3.org/2000/svg">
<path d="M84.3578 40.3056C90.115 40.3056 94.1727 36.9519 94.1727 31.8181C94.2133 27.389 91.6059 24.8212 87.2567 23.2071L84.2748 22.0892C81.2523 20.9714 79.8019 20.0195 79.8019 17.8667C79.8019 15.714 81.9553 14.4725 84.4408 14.4725C86.7603 14.4725 88.541 15.4244 90.0319 17.2045L93.3866 13.9339C91.2332 11.3255 88.1277 9.91797 84.4833 9.91797C79.0158 9.91797 74.9175 13.065 74.9175 18.1988C74.9175 22.2147 77.1945 24.7806 81.8741 26.4796L85.1051 27.6381C87.921 28.6729 89.2883 29.9974 89.2883 32.1096C89.2883 34.3029 87.301 35.7529 84.5257 35.7529C81.6674 35.7529 79.2243 34.3454 77.6928 31.986L73.8823 35.0076C75.6187 38.1934 79.6358 40.3056 84.3578 40.3056ZM107.361 40.2225C111.71 40.2225 114.939 38.4 116.803 35.4208L113.325 32.936C112.206 34.7586 110.343 36.0831 107.403 36.0831C103.925 36.0831 101.233 33.8897 101.026 30.4531H117.301C117.342 29.7908 117.342 29.4182 117.342 28.9626C117.342 22.2977 112.828 18.695 107.361 18.695C101.067 18.695 96.5512 23.3731 96.5512 29.4588C96.5512 35.7916 101.065 40.2225 107.361 40.2225ZM101.231 27.14C101.893 24.076 104.502 22.5449 107.195 22.5449C109.844 22.5449 112.247 24.159 112.743 27.14H101.231ZM141.007 48.4609V19.1082H136.451V21.8826C135.292 20.2261 132.807 18.695 129.825 18.695C124.151 18.695 119.844 23.5392 119.844 29.4588C119.844 35.3784 124.151 40.2225 129.825 40.2225C132.807 40.2225 135.292 38.6915 136.451 37.0349V48.4609H141.007ZM130.653 36.0812C127.009 36.0812 124.483 33.1832 124.483 29.4569C124.483 25.7307 127.009 22.8326 130.653 22.8326C134.298 22.8326 136.824 25.7307 136.824 29.4569C136.824 33.1832 134.298 36.0812 130.653 36.0812ZM152.794 40.2225C155.444 40.2225 157.64 39.1047 158.841 36.9925V39.8075H163.397V19.1082H158.841V29.2928C158.841 33.7643 156.771 36.0831 153.789 36.0831C151.139 36.0831 149.648 34.0539 149.648 30.7427V19.1082H145.092V31.4879C145.092 36.7859 148.032 40.2225 152.794 40.2225ZM177.644 40.2225C181.994 40.2225 185.223 38.4 187.087 35.4208L183.608 32.936C182.49 34.7586 180.626 36.0831 177.687 36.0831C174.209 36.0831 171.516 33.8897 171.31 30.4531H187.585C187.625 29.7908 187.625 29.4182 187.625 28.9626C187.625 22.2977 183.112 18.695 177.644 18.695C171.35 18.695 166.835 23.3731 166.835 29.4588C166.835 35.7916 171.348 40.2225 177.644 40.2225ZM171.514 27.14C172.177 24.076 174.786 22.5449 177.478 22.5449C180.128 22.5449 182.531 24.159 183.027 27.14H171.514ZM191.065 39.8075H195.621V29.623C195.621 25.1514 197.94 22.8326 200.963 22.8326C203.613 22.8326 205.27 24.7788 205.27 28.09V39.8056H209.826V27.3448C209.826 22.0874 206.72 18.6913 201.915 18.6913C199.223 18.6913 196.903 19.8092 195.621 21.9214V19.1082H191.065V39.8075V39.8075ZM223.853 40.2225C228.16 40.2225 231.721 37.9868 233.502 34.5095L229.525 32.3568C228.531 34.469 226.503 36.0001 223.851 36.0001C220.166 36.0001 217.557 33.1426 217.557 29.4588C217.557 25.7749 220.166 22.9175 223.851 22.9175C226.501 22.9175 228.531 24.4486 229.525 26.5608L233.502 24.408C231.721 20.9308 228.16 18.695 223.853 18.695C217.642 18.695 212.92 23.3326 212.92 29.4588C212.92 35.585 217.642 40.2225 223.853 40.2225ZM245.784 40.2225C250.133 40.2225 253.362 38.4 255.226 35.4208L251.748 32.936C250.63 34.7586 248.766 36.0831 245.826 36.0831C242.346 36.0831 239.656 33.8897 239.447 30.4531H255.724C255.765 29.7908 255.765 29.4182 255.765 28.9626C255.765 22.2977 251.251 18.695 245.784 18.695C239.488 18.695 234.974 23.3731 234.974 29.4588C234.974 35.7916 239.488 40.2225 245.784 40.2225ZM239.654 27.14C240.316 24.076 242.926 22.5449 245.618 22.5449C248.268 22.5449 250.67 24.159 251.167 27.14H239.654Z" fill="black"/>
<g clip-path="url(#clip0_103_196)">
<path d="M0.4729 11.0612L0.4729 38.8884C0.4729 44.5681 4.97001 49.1724 10.5175 49.1724H49.514C55.0615 49.1724 59.5586 44.5681 59.5586 38.8884V11.0612C59.5586 5.38156 55.0615 0.777275 49.514 0.777275H10.5175C4.97001 0.777275 0.4729 5.38156 0.4729 11.0612Z" fill="#111111"/>
<path d="M0.4729 11.0612L0.4729 38.8884C0.4729 44.5681 4.97001 49.1724 10.5175 49.1724H49.514C55.0615 49.1724 59.5586 44.5681 59.5586 38.8884V11.0612C59.5586 5.38156 55.0615 0.777275 49.514 0.777275H10.5175C4.97001 0.777275 0.4729 5.38156 0.4729 11.0612Z" fill="url(#paint0_linear_103_196)"/>
<path d="M15.2443 12.8763C15.2443 11.2058 13.9216 9.85156 12.29 9.85156C10.6584 9.85156 9.33569 11.2058 9.33569 12.8763C9.33569 14.5467 10.6584 15.9009 12.29 15.9009C13.9216 15.9009 15.2443 14.5467 15.2443 12.8763Z" fill="url(#paint1_linear_103_196)"/>
<path d="M15.2443 12.8763C15.2443 11.2058 13.9216 9.85156 12.29 9.85156C10.6584 9.85156 9.33569 11.2058 9.33569 12.8763C9.33569 14.5467 10.6584 15.9009 12.29 15.9009C13.9216 15.9009 15.2443 14.5467 15.2443 12.8763Z" fill="url(#paint2_linear_103_196)"/>
<path d="M15.2443 12.8763C15.2443 11.2058 13.9216 9.85156 12.29 9.85156C10.6584 9.85156 9.33569 11.2058 9.33569 12.8763C9.33569 14.5467 10.6584 15.9009 12.29 15.9009C13.9216 15.9009 15.2443 14.5467 15.2443 12.8763Z" fill="url(#paint3_linear_103_196)"/>
<path d="M15.2443 37.0545C15.2443 35.384 13.9216 34.0298 12.29 34.0298C10.6584 34.0298 9.33569 35.384 9.33569 37.0545C9.33569 38.725 10.6584 40.0792 12.29 40.0792C13.9216 40.0792 15.2443 38.725 15.2443 37.0545Z" fill="url(#paint4_linear_103_196)"/>
<path d="M50.6957 24.9749C50.6957 23.3044 49.373 21.9502 47.7414 21.9502C46.1098 21.9502 44.7871 23.3044 44.7871 24.9749C44.7871 26.6454 46.1098 27.9996 47.7414 27.9996C49.373 27.9996 50.6957 26.6454 50.6957 24.9749Z" fill="url(#paint5_linear_103_196)"/>
<path d="M50.6957 24.9749C50.6957 23.3044 49.373 21.9502 47.7414 21.9502C46.1098 21.9502 44.7871 23.3044 44.7871 24.9749C44.7871 26.6454 46.1098 27.9996 47.7414 27.9996C49.373 27.9996 50.6957 26.6454 50.6957 24.9749Z" fill="url(#paint6_linear_103_196)"/>
<path d="M47.7414 9.85156H24.1071C22.4755 9.85156 21.1528 11.2058 21.1528 12.8763C21.1528 14.5467 22.4755 15.9009 24.1071 15.9009H47.7414C49.373 15.9009 50.6957 14.5467 50.6957 12.8763C50.6957 11.2058 49.373 9.85156 47.7414 9.85156Z" fill="url(#paint7_linear_103_196)"/>
<path d="M47.7414 34.0298H24.1071C22.4755 34.0298 21.1528 35.384 21.1528 37.0545C21.1528 38.725 22.4755 40.0792 24.1071 40.0792H47.7414C49.373 40.0792 50.6957 38.725 50.6957 37.0545C50.6957 35.384 49.373 34.0298 47.7414 34.0298Z" fill="url(#paint8_linear_103_196)"/>
<path d="M35.9243 21.9502H12.29C10.6584 21.9502 9.33569 23.3044 9.33569 24.9749C9.33569 26.6454 10.6584 27.9996 12.29 27.9996H35.9243C37.5559 27.9996 38.8786 26.6454 38.8786 24.9749C38.8786 23.3044 37.5559 21.9502 35.9243 21.9502Z" fill="url(#paint9_linear_103_196)"/>
</g>
<defs>
<linearGradient id="paint0_linear_103_196" x1="30.0158" y1="0.777281" x2="30.0158" y2="49.2226" gradientUnits="userSpaceOnUse">
<stop stop-color="#1D273D"/>
<stop offset="1" stop-color="#0D0F13"/>
</linearGradient>
<linearGradient id="paint1_linear_103_196" x1="10.2459" y1="15.8595" x2="14.3824" y2="10.4578" gradientUnits="userSpaceOnUse">
<stop stop-color="#4462FE"/>
<stop offset="1" stop-color="#7D69FA"/>
</linearGradient>
<linearGradient id="paint2_linear_103_196" x1="9.85493" y1="15.9039" x2="14.8177" y2="15.6554" gradientUnits="userSpaceOnUse">
<stop stop-color="#3757FD"/>
<stop offset="1" stop-color="#6980FA"/>
</linearGradient>
<linearGradient id="paint3_linear_103_196" x1="9.85493" y1="15.9039" x2="14.8177" y2="15.6554" gradientUnits="userSpaceOnUse">
<stop stop-color="#2447FF"/>
<stop offset="1" stop-color="#6980FA"/>
</linearGradient>
<linearGradient id="paint4_linear_103_196" x1="10.1713" y1="39.0919" x2="14.2121" y2="34.9102" gradientUnits="userSpaceOnUse">
<stop stop-color="#BC3EE6"/>
<stop offset="1" stop-color="#D972F1"/>
</linearGradient>
<linearGradient id="paint5_linear_103_196" x1="45.9808" y1="26.9805" x2="49.717" y2="23.0971" gradientUnits="userSpaceOnUse">
<stop stop-color="#29BDFF"/>
<stop offset="1" stop-color="#96E7FB"/>
</linearGradient>
<linearGradient id="paint6_linear_103_196" x1="45.2616" y1="27.9582" x2="50.3929" y2="27.7177" gradientUnits="userSpaceOnUse">
<stop stop-color="#23BBFF"/>
<stop offset="1" stop-color="#85E7FF"/>
</linearGradient>
<linearGradient id="paint7_linear_103_196" x1="23.5252" y1="15.8595" x2="47.8996" y2="10.1477" gradientUnits="userSpaceOnUse">
<stop stop-color="#23BBFF"/>
<stop offset="1" stop-color="#85E7FF"/>
</linearGradient>
<linearGradient id="paint8_linear_103_196" x1="23.749" y1="40.0821" x2="47.1583" y2="34.2221" gradientUnits="userSpaceOnUse">
<stop stop-color="#2447FF"/>
<stop offset="1" stop-color="#6980FA"/>
</linearGradient>
<linearGradient id="paint9_linear_103_196" x1="13.3046" y1="28.0469" x2="35.6719" y2="22.1856" gradientUnits="userSpaceOnUse">
<stop stop-color="#6634FF"/>
<stop offset="1" stop-color="#9C6DFF"/>
</linearGradient>
<clipPath id="clip0_103_196">
<rect width="59.0857" height="48.3951" fill="white" transform="translate(0.4729 0.777344)"/>
</clipPath>
</defs>
</svg>
