<svg xmlns="http://www.w3.org/2000/svg" width="34" height="21" viewBox="0 0 34 21" fill="none">
  <path d="M12.6671 19.8981L3.59993 11.1726V19.8981H0.55127V1.23824H3.59993V9.28036L11.0902 1.23824H14.9798L6.67488 10.1739L16.8195 19.8981H12.6671Z" fill="white"/>
  <path d="M19.7011 3.89267C18.6498 3.89267 17.7562 3.02538 17.7562 1.94784C17.7562 0.896584 18.6498 0.0292969 19.7011 0.0292969C20.7786 0.0292969 21.6196 0.896584 21.6196 1.94784C21.6196 3.02538 20.7786 3.89267 19.7011 3.89267ZM18.2556 19.8981V6.75734H21.1466V19.8981H18.2556Z" fill="white"/>
  <path d="M30.8658 20.0295C28.3428 20.0295 26.3717 18.6365 26.3717 15.6667V9.33292H23.6384V6.75734H26.3717V3.10422H29.2626V6.75734H33.0209V9.33292H29.2626V15.1937C29.2626 16.8494 29.9722 17.4276 31.4703 17.4276C32.0222 17.4276 32.6004 17.3488 33.0209 17.1648V19.7404C32.4164 19.9243 31.7857 20.0295 30.8658 20.0295Z" fill="white"/>
</svg>